Coordinates
version=1
nRows=28
nColumns=38
inDegrees=no

Units are S.I. units (second, meters, Newtons, ...)
If the header above contains a line with 'inDegrees', this indicates whether rotational values are in degrees (yes) or radians (no).

endheader
time	pelvis_tilt	pelvis_list	pelvis_rotation	pelvis_tx	pelvis_ty	pelvis_tz	hip_flexion_r	hip_adduction_r	hip_rotation_r	knee_angle_r	ankle_angle_r	subtalar_angle_r	mtp_angle_r	hip_flexion_l	hip_adduction_l	hip_rotation_l	knee_angle_l	ankle_angle_l	subtalar_angle_l	mtp_angle_l	lumbar_extension	lumbar_bending	lumbar_rotation	arm_flex_r	arm_add_r	arm_rot_r	elbow_flex_r	pro_sup_r	wrist_flex_r	wrist_dev_r	arm_flex_l	arm_add_l	arm_rot_l	elbow_flex_l	pro_sup_l	wrist_flex_l	wrist_dev_l
5	2.63463	1.45078	-0.92165	0.702178	1.0338	0.907374	0.360263	-0.0101935	-0.355139	0.339787	-0.0808568	0	0	-0.425444	-0.0667922	-0.15482	0.167478	0.220438	0	0	-0.296117	0.0866479	-0.106452	0.770937	-0.387766	0.31793	1.28777	1.5708	0	0	0.680126	-0.24726	0.280185	1.39408	1.5708	0	0
5.01	2.60865	1.44704	-0.89323	0.702803	1.04351	0.908099	0.360325	-0.00821697	-0.355825	0.362467	-0.0846745	0	0	-0.422461	-0.0786079	-0.16258	0.19342	0.216248	0	0	-0.295681	0.0941206	-0.10717	0.762691	-0.386981	0.315102	1.29761	1.5708	0	0	0.669237	-0.247996	0.272666	1.40276	1.5708	0	0
5.02	2.58093	1.44278	-0.864062	0.70359	1.05332	0.909063	0.3584	-0.00430351	-0.354983	0.381493	-0.0886966	0	0	-0.417816	-0.0914723	-0.171885	0.222426	0.210305	0	0	-0.295605	0.102044	-0.106986	0.754077	-0.386024	0.311961	1.30796	1.5708	0	0	0.657801	-0.249019	0.265191	1.41193	1.5708	0	0
5.03	2.54882	1.4395	-0.831352	0.704585	1.06323	0.910068	0.355898	0.000600541	-0.354114	0.39643	-0.0931615	0	0	-0.409639	-0.10495	-0.181902	0.255174	0.202338	0	0	-0.294128	0.109554	-0.106142	0.744505	-0.384624	0.3081	1.31894	1.5708	0	0	0.645696	-0.25024	0.257837	1.42113	1.5708	0	0
5.04	2.51496	1.4376	-0.797999	0.705832	1.07322	0.911052	0.352785	0.00615913	-0.353727	0.407061	-0.0972095	0	0	-0.397575	-0.118576	-0.193335	0.292171	0.192039	0	0	-0.291161	0.115856	-0.104488	0.734292	-0.382975	0.304472	1.33023	1.5708	0	0	0.633334	-0.251532	0.250873	1.4295	1.5708	0	0
5.05	2.4801	1.43721	-0.76522	0.707426	1.08332	0.911995	0.348808	0.0125543	-0.352937	0.413357	-0.100049	0	0	-0.381599	-0.132389	-0.20764	0.333662	0.178908	0	0	-0.286701	0.12035	-0.101686	0.723429	-0.381079	0.30124	1.34138	1.5708	0	0	0.621059	-0.253696	0.245315	1.43724	1.5708	0	0
5.06	2.43598	1.43838	-0.724775	0.709408	1.09349	0.912807	0.344805	0.0207186	-0.350564	0.415401	-0.100664	0	0	-0.360393	-0.147598	-0.225834	0.380929	0.161995	0	0	-0.279986	0.123668	-0.0975551	0.712029	-0.378774	0.298037	1.35198	1.5708	0	0	0.60881	-0.256676	0.240806	1.44443	1.5708	0	0
5.07	2.3955	1.43984	-0.689308	0.711475	1.10378	0.913749	0.338141	0.029659	-0.347454	0.413165	-0.0995681	0	0	-0.339816	-0.161553	-0.240099	0.426329	0.138596	0	0	-0.275057	0.126116	-0.0973283	0.705489	-0.373187	0.301259	1.35923	1.5708	0	0	0.581428	-0.240111	0.0667809	1.5568	1.04119	0	0
5.08	2.36911	1.44088	-0.668077	0.713769	1.11392	0.914825	0.327762	0.0390074	-0.344791	0.40723	-0.098961	0	0	-0.318823	-0.175547	-0.251406	0.473616	0.109569	0	0	-0.268206	0.126612	-0.0869783	0.690702	-0.37468	0.295209	1.36903	1.5708	0	0	0.585824	-0.263691	0.234541	1.45609	1.5708	0	0
5.09	2.33858	1.44225	-0.643631	0.715941	1.12401	0.915875	0.317045	0.0485152	-0.342847	0.39969	-0.0984664	0	0	-0.295661	-0.189401	-0.260455	0.52186	0.0756469	0	0	-0.262599	0.127485	-0.0809633	0.68137	-0.373268	0.295597	1.37616	1.5708	0	0	0.574279	-0.265991	0.22911	1.46147	1.5708	0	0
5.1	2.28972	1.44335	-0.601222	0.718176	1.13409	0.916711	0.306979	0.0601189	-0.340336	0.389582	-0.0973318	0	0	-0.267362	-0.206712	-0.270667	0.574822	0.0322623	0	0	-0.254745	0.129732	-0.074073	0.671664	-0.372927	0.296845	1.38343	1.5708	0	0	0.562772	-0.268363	0.225481	1.46631	1.5708	0	0
5.11	2.24259	1.44393	-0.56057	0.720354	1.14396	0.917485	0.29724	0.0709708	-0.33792	0.381043	-0.0935787	0	0	-0.237879	-0.223712	-0.276269	0.628114	-0.0139922	0	0	-0.247378	0.132021	-0.0668667	0.66274	-0.373545	0.299381	1.39058	1.5708	0	0	0.552303	-0.270561	0.22228	1.47018	1.5708	0	0
5.12	2.19586	1.44329	-0.52015	0.722413	1.15358	0.918213	0.288034	0.081596	-0.335502	0.374762	-0.0876929	0	0	-0.206909	-0.241063	-0.277615	0.682274	-0.0625748	0	0	-0.240881	0.135327	-0.0593963	0.654956	-0.375239	0.302677	1.39773	1.5708	0	0	0.542808	-0.272317	0.219204	1.47303	1.5708	0	0
5.13	2.15504	1.4416	-0.485177	0.724274	1.16292	0.918954	0.279163	0.091168	-0.333049	0.37109	-0.0802713	0	0	-0.175	-0.258012	-0.274883	0.736591	-0.113497	0	0	-0.235754	0.139329	-0.0520677	0.648471	-0.377787	0.306863	1.40479	1.5708	0	0	0.53425	-0.273812	0.21682	1.47486	1.5708	0	0
5.14	2.12278	1.43958	-0.458433	0.725996	1.17206	0.919733	0.270118	0.0994415	-0.329368	0.368952	-0.0721745	0	0	-0.142928	-0.273707	-0.269523	0.789705	-0.166785	0	0	-0.231912	0.143058	-0.0448171	0.642848	-0.381128	0.311936	1.41159	1.5708	0	0	0.526528	-0.275008	0.214879	1.47587	1.5708	0	0
5.15	2.09957	1.43748	-0.440178	0.727664	1.18099	0.920557	0.26052	0.106701	-0.325013	0.367447	-0.0650486	0	0	-0.110954	-0.287783	-0.259456	0.84188	-0.218176	0	0	-0.22942	0.146174	-0.0379213	0.638058	-0.384611	0.317337	1.41768	1.5708	0	0	0.519861	-0.276245	0.213094	1.47665	1.5708	0	0
5.16	2.09108	1.43542	-0.436494	0.729272	1.18978	0.921494	0.2493	0.112628	-0.320017	0.366391	-0.0577865	0	0	-0.0811685	-0.299335	-0.247669	0.891463	-0.259604	0	0	-0.228967	0.14825	-0.030978	0.633893	-0.387946	0.322776	1.42342	1.5708	0	0	0.51436	-0.277318	0.210861	1.47695	1.5708	0	0
5.17	2.09058	1.43393	-0.440676	0.730807	1.19853	0.9225	0.236773	0.117633	-0.313809	0.364459	-0.0503525	0	0	-0.0527182	-0.308627	-0.239082	0.937451	-0.286663	0	0	-0.229168	0.149171	-0.024121	0.629818	-0.391062	0.328293	1.42874	1.5708	0	0	0.509418	-0.278125	0.208415	1.47692	1.5708	0	0
5.18	2.10014	1.43284	-0.454872	0.732306	1.20724	0.923663	0.222097	0.122002	-0.306725	0.360734	-0.0432089	0	0	-0.0270464	-0.315489	-0.232154	0.977833	-0.299371	0	0	-0.2305	0.148772	-0.0171684	0.625577	-0.393835	0.333218	1.43338	1.5708	0	0	0.50504	-0.278784	0.2064	1.47666	1.5708	0	0
5.19	2.12081	1.43074	-0.479296	0.733783	1.21596	0.925069	0.203044	0.127525	-0.299494	0.352344	-0.0381272	0	0	-0.00479637	-0.321922	-0.225606	1.01273	-0.305264	0	0	-0.233617	0.14823	-0.0106263	0.620847	-0.396021	0.337217	1.43783	1.5708	0	0	0.501015	-0.279495	0.205023	1.4761	1.5708	0	0
5.2	2.15219	1.42928	-0.514417	0.735285	1.22457	0.926652	0.182143	0.131864	-0.293088	0.342533	-0.0337656	0	0	0.0152237	-0.326028	-0.219384	1.04364	-0.301323	0	0	-0.237979	0.145792	-0.00411813	0.615702	-0.397135	0.339826	1.44161	1.5708	0	0	0.497466	-0.280436	0.204113	1.4749	1.5708	0	0
5.21	2.18604	1.42845	-0.551683	0.736729	1.23299	0.928307	0.160346	0.13545	-0.286801	0.330583	-0.0306871	0	0	0.0354471	-0.328092	-0.211987	1.07282	-0.282787	0	0	-0.242397	0.142192	0.00195552	0.610141	-0.397266	0.341209	1.44421	1.5708	0	0	0.494338	-0.28128	0.203075	1.4727	1.5708	0	0
5.22	2.22657	1.428	-0.595088	0.73813	1.24122	0.930064	0.137198	0.137941	-0.280069	0.316955	-0.0283529	0	0	0.0549144	-0.328153	-0.204385	1.09845	-0.256738	0	0	-0.247637	0.13719	0.00737496	0.604577	-0.396353	0.341605	1.44608	1.5708	0	0	0.49219	-0.28219	0.202016	1.46993	1.5708	0	0
5.23	2.26879	1.42853	-0.639871	0.739489	1.24924	0.93182	0.114668	0.138779	-0.273715	0.302894	-0.0266008	0	0	0.0743197	-0.326217	-0.197829	1.11884	-0.233605	0	0	-0.252547	0.130827	0.0122341	0.599328	-0.394598	0.341197	1.44738	1.5708	0	0	0.491215	-0.28317	0.201591	1.46646	1.5708	0	0
5.24	2.30756	1.43065	-0.681763	0.74084	1.25705	0.933472	0.0951228	0.137662	-0.267483	0.290784	-0.0256222	0	0	0.0943364	-0.322301	-0.193649	1.13332	-0.217977	0	0	-0.255956	0.123204	0.0171961	0.594448	-0.392027	0.340263	1.44785	1.5708	0	0	0.49085	-0.284096	0.201494	1.46232	1.5708	0	0
5.25	2.34366	1.43323	-0.721408	0.742173	1.26467	0.935044	0.0772784	0.135887	-0.260532	0.279449	-0.0254862	0	0	0.114021	-0.317173	-0.189327	1.14247	-0.207174	0	0	-0.258622	0.11534	0.0223677	0.59025	-0.388864	0.339211	1.44736	1.5708	0	0	0.491364	-0.285043	0.202051	1.45735	1.5708	0	0
5.26	2.37913	1.43647	-0.760952	0.743464	1.2721	0.9365	0.0619286	0.132657	-0.253932	0.270969	-0.0241792	0	0	0.133049	-0.310733	-0.185344	1.14669	-0.200285	0	0	-0.260527	0.107109	0.0277258	0.586988	-0.385499	0.338847	1.44594	1.5708	0	0	0.49249	-0.286071	0.203024	1.4519	1.5708	0	0
5.27	2.41163	1.43995	-0.79773	0.744729	1.27945	0.937874	0.047097	0.129514	-0.246092	0.261615	-0.0236938	0	0	0.151674	-0.304283	-0.182892	1.14702	-0.193978	0	0	-0.261491	0.0990947	0.0332583	0.583855	-0.381987	0.338281	1.44381	1.5708	0	0	0.493971	-0.287072	0.20451	1.44586	1.5708	0	0
